<?xml version="1.0" encoding="UTF-8"?>
<svg id="Capa_1" data-name="Capa 1" xmlns="http://www.w3.org/2000/svg" viewBox="0 0 210.39 44.46">
  <defs>
    <style>
      .cls-1 {
        fill: #f9b214;
      }

      .cls-2 {
        fill: #004b80;
      }

      .cls-3 {
        fill: #fab413;
      }

      .cls-4 {
        fill: #8b9f48;
      }

      .cls-5 {
        fill: #e73c1e;
      }

      .cls-6 {
        fill: #f0811a;
      }

      .cls-7 {
        fill: #ffe1a1;
      }

      .cls-8 {
        fill: #e73e1e;
      }
    </style>
  </defs>
  <g>
    <polygon class="cls-2" points="0 23.96 0 0 41.28 0 0 23.96"/>
    <polygon class="cls-2" points="0 37.8 0 25.89 11.82 19.15 35.68 28.8 35.68 42.84 32.9 43.71 30.81 34.1 18.99 32.54 16.51 40.06 11.95 41.62 0 37.8"/>
    <polygon class="cls-7" points="11.9 40.38 11.9 22.29 33.22 30.81 14.25 39.33 11.9 40.38"/>
    <polygon class="cls-1" points="32.92 44.46 33.22 30.82 14.82 39.16 32.92 44.46"/>
    <polygon class="cls-8" points="22.98 12.86 22.98 21.94 13.28 18.3 22.98 12.86"/>
    <polygon class="cls-5" points="23.72 12.58 44.62 0 54.19 0 54.19 23.03 23.72 12.58"/>
    <polygon class="cls-3" points="24.6 14.46 24.6 24.61 35.65 29.18 35.65 18.27 24.6 14.46"/>
    <polygon class="cls-4" points="37.28 19.15 37.28 43.38 54.19 38.66 54.19 24.77 37.28 19.15"/>
  </g>
  <g>
    <path class="cls-6" d="M57.11,19.15c0-6.47,4.94-11.2,11.6-11.2,3.38,0,6.32,1.16,8.32,3.41l-2.04,1.97c-1.69-1.78-3.75-2.6-6.16-2.6-4.94,0-8.6,3.57-8.6,8.41s3.66,8.41,8.6,8.41c2.41,0,4.47-.84,6.16-2.63l2.04,1.97c-2,2.25-4.94,3.44-8.35,3.44-6.63,0-11.57-4.72-11.57-11.2Z"/>
    <path class="cls-6" d="M81.23,20.65v-12.45h3.13v12.32c0,4.85,2.22,7.04,6.16,7.04s6.19-2.19,6.19-7.04v-12.32h3.03v12.45c0,6.35-3.47,9.7-9.26,9.7s-9.26-3.35-9.26-9.7Z"/>
    <path class="cls-6" d="M125.01,24.19c0,3.75-2.85,5.91-8.38,5.91h-10.45V8.2h9.82c5.04,0,7.85,2.13,7.85,5.66,0,2.38-1.22,4.04-2.94,4.88,2.47.69,4.1,2.53,4.1,5.44ZM109.31,10.74v7.01h6.41c3.19,0,5-1.19,5-3.5s-1.81-3.5-5-3.5h-6.41ZM121.85,23.94c0-2.53-1.87-3.66-5.35-3.66h-7.19v7.29h7.19c3.47,0,5.35-1.09,5.35-3.63Z"/>
    <path class="cls-6" d="M129.87,8.2h3.13v21.9h-3.13V8.2Z"/>
    <path class="cls-6" d="M137.57,27.6l1.16-2.44c1.63,1.47,4.41,2.53,7.23,2.53,3.78,0,5.41-1.47,5.41-3.38,0-5.35-13.26-1.97-13.26-10.1,0-3.38,2.63-6.26,8.38-6.26,2.56,0,5.22.69,7.04,1.94l-1.03,2.5c-1.91-1.22-4.07-1.78-6.01-1.78-3.72,0-5.32,1.56-5.32,3.47,0,5.35,13.26,2,13.26,10.04,0,3.35-2.69,6.22-8.48,6.22-3.35,0-6.63-1.13-8.38-2.75Z"/>
    <path class="cls-6" d="M179.31,30.1l-.03-15.95-7.91,13.29h-1.44l-7.91-13.2v15.86h-3V8.2h2.56l9.13,15.39,9.01-15.39h2.56l.03,21.9h-3Z"/>
    <path class="cls-6" d="M187.12,19.15c0-6.41,4.94-11.2,11.67-11.2s11.61,4.75,11.61,11.2-4.94,11.2-11.61,11.2-11.67-4.79-11.67-11.2ZM207.26,19.15c0-4.85-3.63-8.41-8.48-8.41s-8.54,3.57-8.54,8.41,3.63,8.41,8.54,8.41,8.48-3.57,8.48-8.41Z"/>
  </g>
</svg>